<svg xmlns="http://www.w3.org/2000/svg" viewBox="0 0 600 200"><path fill="none" stroke="black" d="M0.0000 100.00L3.0000 103.14L6.0000 106.28L9.0000 109.41L12.000 112.53L15.000 115.64L18.000 118.74L21.000 121.81L24.000 124.87L27.000 127.90L30.000 130.90L33.000 133.87L36.000 136.81L39.000 139.71L42.000 142.58L45.000 145.40L48.000 148.18L51.000 150.90L54.000 153.58L57.000 156.21L60.000 158.78L63.000 161.29L66.000 163.74L69.000 166.13L72.000 168.45L75.000 170.71L78.000 172.90L81.000 175.01L84.000 177.05L87.000 179.02L90.000 180.90L93.000 182.71L96.000 184.43L99.000 186.07L102.00 187.63L105.00 189.10L108.00 190.48L111.00 191.78L114.00 192.98L117.00 194.09L120.00 195.11L123.00 196.03L126.00 196.86L129.00 197.59L132.00 198.23L135.00 198.77L138.00 199.21L141.00 199.56L144.00 199.80L147.00 199.95L150.00 200.00L153.00 199.95L156.00 199.80L159.00 199.56L162.00 199.21L165.00 198.77L168.00 198.23L171.00 197.59L174.00 196.86L177.00 196.03L180.00 195.11L183.00 194.09L186.00 192.98L189.00 191.78L192.00 190.48L195.00 189.10L198.00 187.63L201.00 186.07L204.00 184.43L207.00 182.71L210.00 180.90L213.00 179.02L216.00 177.05L219.00 175.01L222.00 172.90L225.00 170.71L228.00 168.45L231.00 166.13L234.00 163.74L237.00 161.29L240.00 158.78L243.00 156.21L246.00 153.58L249.00 150.90L252.00 148.18L255.00 145.40L258.00 142.58L261.00 139.71L264.00 136.81L267.00 133.87L270.00 130.90L273.00 127.90L276.00 124.87L279.00 121.81L282.00 118.74L285.00 115.64L288.00 112.53L291.00 109.41L294.00 106.28L297.00 103.14L300.00 100.00L303.00 96.859L306.00 93.721L309.00 90.589L312.00 87.467L315.00 84.357L318.00 81.262L321.00 78.186L324.00 75.131L327.00 72.101L330.00 69.098L333.00 66.126L336.00 63.188L339.00 60.285L342.00 57.422L345.00 54.601L348.00 51.825L351.00 49.096L354.00 46.417L357.00 43.792L360.00 41.221L363.00 38.709L366.00 36.258L369.00 33.869L372.00 31.545L375.00 29.289L378.00 27.103L381.00 24.989L384.00 22.949L387.00 20.984L390.00 19.098L393.00 17.292L396.00 15.567L399.00 13.926L402.00 12.369L405.00 10.899L408.00 9.5173L411.00 8.2245L414.00 7.0224L417.00 5.9119L420.00 4.8943L423.00 3.9706L426.00 3.1417L429.00 2.4083L432.00 1.7713L435.00 1.2312L438.00 0.78853L441.00 0.44380L444.00 0.19733L447.00 0.049344L450.00 0.0000L453.00 0.049344L456.00 0.19733L459.00 0.44380L462.00 0.78853L465.00 1.2312L468.00 1.7713L471.00 2.4083L474.00 3.1417L477.00 3.9706L480.00 4.8943L483.00 5.9119L486.00 7.0224L489.00 8.2245L492.00 9.5173L495.00 10.899L498.00 12.369L501.00 13.926L504.00 15.567L507.00 17.292L510.00 19.098L513.00 20.984L516.00 22.949L519.00 24.989L522.00 27.103L525.00 29.289L528.00 31.545L531.00 33.869L534.00 36.258L537.00 38.709L540.00 41.221L543.00 43.792L546.00 46.417L549.00 49.096L552.00 51.825L555.00 54.601L558.00 57.422L561.00 60.285L564.00 63.188L567.00 66.126L570.00 69.098L573.00 72.101L576.00 75.131L579.00 78.186L582.00 81.262L585.00 84.357L588.00 87.467L591.00 90.589L594.00 93.721"/></svg>